# xmcd
#
# Track frame offsets:
#	150
#	15006
#	29544
#	44338
#
# Disc length: 780 seconds
#
# Revision: 0
# Processed by: cddbd v1.5.2PL0 Copyright (c) Steve Scherf et al.
# Submitted via: audiograbber 1.83.01
#
DISCID=22030a04
DTITLE=Les Yeux D'la Tête - I don't speak English
DYEAR=2014
DGENRE=Chanson
TTITLE0=I don't speak English
TTITLE1=Sois belle et tais toi
TTITLE2=Hasta la vida
TTITLE3=Balkan Boogie
EXTD=
EXTT0=
EXTT1=
EXTT2=
EXTT3=
PLAYORDER=
